HIERARCHY
ROOT Hips
{
 OFFSET 0.000000 0.000000 0.000000
 CHANNELS 6 Xposition Yposition Zposition Yrotation Xrotation Zrotation
 JOINT Chest
 {
  OFFSET 0.000000 9.585900 0.002600
  CHANNELS 3 Yrotation Xrotation Zrotation
  JOINT Chest2
  {
   OFFSET 0.000000 9.601200 -0.005300
   CHANNELS 3 Yrotation Xrotation Zrotation
   JOINT Chest3
   {
    OFFSET 0.000000 9.561800 0.000000
    CHANNELS 3 Yrotation Xrotation Zrotation
    JOINT Chest4
    {
     OFFSET 0.000000 9.552100 0.000000
     CHANNELS 3 Yrotation Xrotation Zrotation
     JOINT Neck
     {
      OFFSET 0.000000 14.453000 0.000000
      CHANNELS 3 Yrotation Xrotation Zrotation
      JOINT Head
      {
       OFFSET 0.000000 8.936500 -0.011300
       CHANNELS 3 Yrotation Xrotation Zrotation
       End Site
       {
        OFFSET 0.000000 17.073600 -0.006000
       }
      }
     }
     JOINT RightCollar
     {
      OFFSET -2.921100 9.558500 0.000000
      CHANNELS 3 Yrotation Xrotation Zrotation
      JOINT RightShoulder
      {
       OFFSET -13.519700 0.000000 0.000000
       CHANNELS 3 Yrotation Xrotation Zrotation
       JOINT RightElbow
       {
        OFFSET 0.000000 -29.696600 0.000000
        CHANNELS 3 Yrotation Xrotation Zrotation
        JOINT RightWrist
        {
         OFFSET 0.000000 -24.004700 0.000000
         CHANNELS 3 Yrotation Xrotation Zrotation
         End Site
         {
          OFFSET 0.000000 -17.728500 0.000000
         }
        }
       }
      }
     }
     JOINT LeftCollar
     {
      OFFSET 2.921100 9.558500 0.000000
      CHANNELS 3 Yrotation Xrotation Zrotation
      JOINT LeftShoulder
      {
       OFFSET 13.519700 0.000000 0.000000
       CHANNELS 3 Yrotation Xrotation Zrotation
       JOINT LeftElbow
       {
        OFFSET 0.000000 -29.696600 0.000000
        CHANNELS 3 Yrotation Xrotation Zrotation
        JOINT LeftWrist
        {
         OFFSET 0.000000 -24.004700 0.000000
         CHANNELS 3 Yrotation Xrotation Zrotation
         End Site
         {
          OFFSET 0.000000 -17.728500 0.000000
         }
        }
       }
      }
     }
    }
   }
  }
 }
 JOINT RightHip
 {
  OFFSET -7.771700 -0.012900 -0.001300
  CHANNELS 3 Yrotation Xrotation Zrotation
  JOINT RightKnee
  {
   OFFSET 0.000000 -40.869800 0.001200
   CHANNELS 3 Yrotation Xrotation Zrotation
   JOINT RightAnkle
   {
    OFFSET 0.000000 -39.717900 0.002100
    CHANNELS 3 Yrotation Xrotation Zrotation
    JOINT RightToe
    {
     OFFSET 0.000000 -4.965400 11.033500
     CHANNELS 3 Yrotation Xrotation Zrotation
     End Site
     {
      OFFSET 0.000000 -1.423100 5.872300
     }
    }
   }
  }
 }
 JOINT LeftHip
 {
  OFFSET 7.771700 -0.012900 -0.001300
  CHANNELS 3 Yrotation Xrotation Zrotation
  JOINT LeftKnee
  {
   OFFSET 0.000000 -40.869800 0.001200
   CHANNELS 3 Yrotation Xrotation Zrotation
   JOINT LeftAnkle
   {
    OFFSET 0.000000 -39.717900 0.002100
    CHANNELS 3 Yrotation Xrotation Zrotation
    JOINT LeftToe
    {
     OFFSET 0.000000 -4.965400 11.033500
     CHANNELS 3 Yrotation Xrotation Zrotation
     End Site
     {
      OFFSET 0.000000 -1.423100 5.872300
     }
    }
   }
  }
 }
}
MOTION
Frames: 8
Frame Time: 0.008333
0.000000 85.388000 0.000000 0.000000 -5.767877 0.000000 0.000000 11.653817 0.000000 0.000000 -5.885947 0.000000 0.000000 -0.000000 0.000000 0.000000 -0.000000 0.000000 0.000000 12.528835 0.000000 0.000000 0.711642 0.000000 0.000000 -0.000000 0.000000 0.000000 0.000000 -90.000000 0.000000 -2.309062 0.000000 0.000000 2.309062 0.000000 0.000000 -0.000000 0.000000 0.000000 -0.000000 90.000000 0.000000 -2.309062 0.000000 0.000000 2.309062 0.000000 0.000000 8.520406 0.000000 0.000000 1.905762 0.000000 -0.000000 -4.658285 0.000000 0.000000 -0.000000 0.000000 0.000000 8.520406 0.000000 0.000000 1.905762 0.000000 -0.000000 -4.658285 0.000000 0.000000 -0.000000 0.000000
-50.944663 56.264835 -18.471386 -176.965776 -12.494288 -0.262616 0.255858 14.736689 -0.742639 0.052878 1.338456 0.001662 0.102549 2.247375 0.012302 0.519506 13.279554 0.064630 1.147551 14.537455 -1.112105 1.444817 -10.465492 -1.416058 -4.444856 -3.877670 -1.469383 -11.746076 -5.153848 -7.996166 -70.584409 -14.284536 107.989705 -41.369201 -6.302347 8.312074 -4.343019 -4.203288 6.297146 23.585260 -11.733808 4.118951 70.295959 -18.870816 -106.243650 29.178105 -23.708475 -4.850515 -2.303200 -62.960334 10.443638 -40.464799 84.310751 -44.890557 -10.347890 -17.297662 13.931039 0.351866 -0.449931 0.255070 18.192394 -56.884026 -22.300796 68.441435 71.678361 69.156432 -7.396054 -15.237629 1.171550 0.384949 1.031783 0.190597
-50.943674 56.263731 -18.470402 -176.949701 -12.495554 -0.255714 0.250790 14.733840 -0.741172 0.052637 1.336514 0.001644 0.100024 2.246904 0.010735 0.520207 13.267860 0.065000 1.153641 14.560798 -1.120235 1.453268 -10.441013 -1.426175 -4.379014 -3.760545 -1.405413 -11.346053 -4.994453 -7.697529 -70.156430 -14.336166 107.403088 -41.243930 -6.927907 7.660951 -4.317781 -4.032226 6.257135 23.220421 -11.612498 3.958164 69.821158 -19.159958 -105.900923 29.130154 -23.788262 -4.533981 -2.288002 -62.963482 10.426121 -40.604014 84.306214 -45.034616 -10.366330 -17.292019 13.934161 0.332104 -0.441319 0.224194 18.192385 -56.878663 -22.294979 68.421134 71.691925 69.125219 -7.437241 -15.242253 1.174053 0.414709 1.039078 0.204952
-50.941013 56.263020 -18.469376 -176.946550 -12.502566 -0.255928 0.263016 14.735480 -0.728063 0.052397 1.335257 0.001784 0.088574 2.251560 0.003719 0.531261 13.256032 0.072996 1.155902 14.583420 -1.129458 1.457957 -10.417445 -1.436463 -4.320582 -3.648124 -1.342662 -10.914643 -4.850913 -7.368486 -69.703977 -14.454777 106.794221 -41.092903 -7.740852 6.840783 -4.300191 -3.847133 6.211440 22.840560 -11.483539 3.759008 69.360578 -19.542676 -105.547597 29.041234 -23.790638 -4.180869 -2.288367 -62.960035 10.431559 -40.685546 84.302543 -45.118712 -10.372310 -17.283342 13.935837 0.331132 -0.443107 0.209999 18.192763 -56.870295 -22.276184 68.396932 71.708109 69.098798 -7.464879 -15.247806 1.165181 0.442340 1.047164 0.220040
-50.941228 56.262898 -18.467702 -176.933633 -12.514579 -0.243004 0.251582 14.741209 -0.730596 0.048945 1.328176 0.013938 0.089642 2.254887 -0.008095 0.524892 13.249917 0.074522 1.159261 14.609748 -1.147499 1.465641 -10.389637 -1.455902 -4.255323 -3.538869 -1.285708 -10.449174 -4.723942 -7.017625 -69.218479 -14.700495 106.164149 -40.893139 -8.793891 5.835805 -4.272987 -3.643641 6.156025 22.444640 -11.347355 3.524073 68.942852 -20.054343 -105.185756 28.846853 -23.647342 -3.778129 -2.285492 -62.949077 10.417211 -40.771091 84.298356 -45.215495 -10.380400 -17.285513 13.939899 0.345351 -0.437409 0.205704 18.201060 -56.853121 -22.289536 68.386270 71.708106 69.075814 -7.458169 -15.243960 1.159973 0.428277 1.047868 0.228776
-50.939659 56.263198 -18.463619 -176.923854 -12.520422 -0.243620 0.241000 14.741225 -0.719491 0.044732 1.330750 0.010596 0.083528 2.248916 0.004620 0.518643 13.249608 0.068597 1.162387 14.637518 -1.171715 1.474700 -10.360365 -1.482358 -4.183657 -3.450368 -1.232053 -9.948988 -4.608773 -6.656832 -68.691871 -15.124525 105.499261 -40.622160 -10.080795 4.684977 -4.239708 -3.430927 6.090362 22.028300 -11.208481 3.257564 68.587628 -20.722842 -104.821882 28.495195 -23.278652 -3.321733 -2.320804 -62.942491 10.439678 -40.770559 84.296259 -45.234702 -10.341663 -17.283048 13.932668 0.332432 -0.441192 0.202513 18.194860 -56.847587 -22.284137 68.360050 71.710695 69.047426 -7.461603 -15.237512 1.156965 0.434514 1.049201 0.229408
-50.939806 56.264471 -18.458478 -176.918457 -12.529879 -0.238986 0.228737 14.747156 -0.718483 0.043104 1.334165 0.010070 0.081832 2.251395 0.004803 0.507324 13.244536 0.066833 1.144063 14.690451 -1.214512 1.497342 -10.363405 -1.496033 -4.107873 -3.382956 -1.166518 -9.415116 -4.504557 -6.298972 -68.112281 -15.726822 104.785667 -40.280704 -11.496748 3.481739 -4.212510 -3.209553 6.026982 21.591106 -11.064848 2.969999 68.306932 -21.574141 -104.483254 27.988959 -22.630235 -2.834369 -2.348073 -62.932302 10.459396 -40.754939 84.292092 -45.238380 -10.339211 -17.275726 13.936199 0.324360 -0.441839 0.189493 18.207259 -56.832556 -22.283942 68.323557 71.714274 69.005104 -7.478501 -15.232054 1.162603 0.443142 1.050770 0.230582
-50.943217 56.266355 -18.450050 -176.896462 -12.529555 -0.225148 0.192817 14.745307 -0.728904 0.044917 1.337062 0.004383 0.080306 2.254558 0.005055 0.473942 13.273243 0.078938 1.157157 14.679789 -1.257599 1.478281 -10.310762 -1.565129 -4.012377 -3.356856 -1.113325 -8.839076 -4.424441 -5.954009 -67.454598 -16.424985 104.021633 -39.870327 -12.891688 2.330276 -4.178686 -3.018002 5.941772 21.129534 -10.906552 2.683615 68.102958 -22.600818 -104.214820 27.356941 -21.699222 -2.344007 -2.384119 -62.929005 10.462605 -40.660223 84.292410 -45.171204 -10.343208 -17.276076 13.941618 0.336602 -0.434241 0.175669 18.232743 -56.822458 -22.317524 68.265057 71.714661 68.930406 -7.469290 -15.211958 1.170342 0.421890 1.045591 0.235242
